<svg width="24" height="24" xmlns="http://www.w3.org/2000/svg">

 <g>
  <title>background</title>
  <rect fill="none" id="canvas_background" height="402" width="582" y="-1" x="-1"/>
 </g>
 <g>
  <title>Layer 1</title>
  <path fill="#0096ff" id="svg_2" d="m13,22.5c0,0.827 0.673,1.5 1.5,1.5l1,0c0.827,0 1.5,-0.673 1.5,-1.5l0,-0.5l-4,0l0,0.5z"/>
  <path fill="#0096ff" id="svg_3" d="m23.896,2.325c-1.126,-1.456 -2.956,-2.325 -4.896,-2.325c-3.309,0 -6,2.468 -6,5.5l0,15.5l4,0l0,-11c0,-1.102 0.897,-2 2,-2c0.276,0 0.5,0.224 0.5,0.5s-0.224,0.5 -0.5,0.5c-0.551,0 -1,0.448 -1,1l0,0.922c0.328,0.051 0.662,0.078 1,0.078c1.94,0 3.77,-0.869 4.896,-2.325c0.067,-0.088 0.104,-0.196 0.104,-0.306l0,-5.738c0,-0.111 -0.037,-0.218 -0.104,-0.306zm-6.192,0.944c-0.67,0.296 -1.196,0.806 -1.479,1.436c-0.083,0.185 -0.266,0.295 -0.457,0.295c-0.068,0 -0.138,-0.014 -0.205,-0.044c-0.252,-0.113 -0.364,-0.409 -0.251,-0.661c0.385,-0.855 1.091,-1.544 1.988,-1.939c0.252,-0.112 0.548,0.004 0.659,0.255c0.112,0.251 -0.003,0.546 -0.255,0.658zm3.046,2.731c-0.414,0 -0.75,-0.337 -0.75,-0.75s0.336,-0.75 0.75,-0.75s0.75,0.337 0.75,0.75s-0.336,0.75 -0.75,0.75z"/>
  <path fill="#0096ff" id="svg_4" d="m7,22.5c0,0.827 0.673,1.5 1.5,1.5l1,0c0.827,0 1.5,-0.673 1.5,-1.5l0,-0.5l-4,0l0,0.5z"/>
  <path fill="#0096ff" id="svg_5" d="m5,0c-1.94,0 -3.77,0.869 -4.895,2.325c-0.068,0.088 -0.105,0.195 -0.105,0.306l0,5.738c0,0.11 0.037,0.218 0.105,0.306c1.125,1.456 2.955,2.325 4.895,2.325c0.338,0 0.672,-0.027 1,-0.078l0,-0.922c0,-0.552 -0.449,-1 -1,-1c-0.276,0 -0.5,-0.224 -0.5,-0.5s0.224,-0.5 0.5,-0.5c1.103,0 2,0.898 2,2l0,11l4,0l0,-15.5c0,-3.032 -2.691,-5.5 -6,-5.5zm-1.75,6c-0.414,0 -0.75,-0.337 -0.75,-0.75s0.336,-0.75 0.75,-0.75s0.75,0.337 0.75,0.75s-0.336,0.75 -0.75,0.75zm5.186,-1.045c-0.066,0.03 -0.136,0.044 -0.204,0.044c-0.191,0 -0.373,-0.109 -0.457,-0.295c-0.283,-0.63 -0.809,-1.14 -1.479,-1.436c-0.253,-0.111 -0.367,-0.406 -0.255,-0.659c0.11,-0.251 0.406,-0.367 0.659,-0.254c0.897,0.395 1.603,1.083 1.988,1.939c0.113,0.252 0.001,0.548 -0.252,0.661z"/>
 </g>
</svg>